<svg width="589px" height="207px" viewBox="0 -1 589 207" fill="#FFF" version="1.1" xmlns="http://www.w3.org/2000/svg" xmlns:xlink="http://www.w3.org/1999/xlink">
    <g stroke="none" stroke-width="1" fill-rule="evenodd">
        <path d="M375.51632,-1.36779476e-13 L436.690778,-1.36779476e-13 C436.690778,113.218374 338.934217,205 218.345389,205 C97.7565604,205 0,113.218374 0,-1.65201186e-13 L62.6992463,-1.36779476e-13 C57.9470634,14.2056183 55.3851718,29.3219143 55.3851718,45 C55.3851718,127.842712 126.914362,195 215.15009,195 C265.558126,195 310.513645,173.081857 339.79488,138.842578 C366.730681,117.835897 384.230469,83.8507525 384.230469,45.5 C384.230469,29.3439299 381.12479,13.9626219 375.516304,-2.80083445e-06 L375.51632,-1.36779476e-13 Z"></path>
        <path d="M210.13503,1.11910481e-13 L152.309222,1.11910481e-13 C152.309222,113.218374 250.065783,205 370.654611,205 C491.24344,205 589,113.218374 589,1.21198063e-13 L519.910157,1.11910481e-13 C524.66234,14.2056183 527.224231,29.3219143 527.224231,45 C527.224231,127.842712 455.695041,195 367.459313,195 C319.589233,195 276.636443,175.233376 247.355196,143.919316 C218.865622,123.118741 200.167969,88.1415881 200.167969,48.5 C200.167969,31.1781951 203.737994,14.7469914 210.135032,-5.28951588e-06 L210.13503,1.11910481e-13 Z"></path>
    </g>
</svg>
