<svg viewBox="0 -1 256 207" version="1.1" xmlns="http://www.w3.org/2000/svg" xmlns:xlink="http://www.w3.org/1999/xlink">
    <g stroke="none" stroke-width="1" fill="none" fill-rule="evenodd">
        <path d="M163.212526,-1.36779477e-13 L189.801085,-1.36779477e-13 C189.801085,113.218374 147.312665,205 94.9005425,205 C42.4884201,205 0,113.218374 0,-1.65201186e-13 L27.2512853,-1.36779477e-13 C25.1858204,14.2056183 24.0723327,29.3219143 24.0723327,45 C24.0723327,127.842712 55.1614206,195 93.5117541,195 C115.420849,195 134.96009,173.081857 147.686739,138.842578 C159.39398,117.835897 167,83.8507525 167,45.5 C167,29.3439299 165.650164,13.9626219 163.212519,-2.80083445e-06 L163.212526,-1.36779477e-13 Z" fill="#FFFFFF"></path>
        <path d="M91.3320333,1.11910481e-13 L66.198915,1.11910481e-13 C66.198915,113.218374 108.687335,205 161.099458,205 C213.51158,205 256,113.218374 256,1.21198063e-13 L225.971138,1.11910481e-13 C228.036603,14.2056183 229.15009,29.3219143 229.15009,45 C229.15009,127.842712 198.061003,195 159.710669,195 C138.904658,195 120.235874,175.233376 107.509219,143.919316 C95.1266539,123.118741 87,88.1415881 87,48.5 C87,31.1781951 88.5516578,14.7469914 91.3320343,-5.28951588e-06 L91.3320333,1.11910481e-13 Z" fill="#FFFFFF"></path>
    </g>
</svg>
